<svg xmlns:dc="http://purl.org/dc/elements/1.1/" xmlns:cc="http://creativecommons.org/ns#" xmlns:rdf="http://www.w3.org/1999/02/22-rdf-syntax-ns#" xmlns:svg="http://www.w3.org/2000/svg" xmlns="http://www.w3.org/2000/svg" xmlns:sodipodi="http://sodipodi.sourceforge.net/DTD/sodipodi-0.dtd" xmlns:inkscape="http://www.inkscape.org/namespaces/inkscape" fill="#000000" version="1.1" x="0px" y="0px" viewBox="0 0 100 125"><path style="font-size:medium;font-style:normal;font-variant:normal;font-weight:normal;font-stretch:normal;text-indent:0;text-align:start;text-decoration:none;line-height:normal;letter-spacing:normal;word-spacing:normal;text-transform:none;direction:ltr;block-progression:tb;writing-mode:lr-tb;text-anchor:start;baseline-shift:baseline;opacity:1;color:#000000;fill:#000000;fill-opacity:1;stroke:none;stroke-width:5.99999952000000030;marker:none;visibility:visible;display:inline;overflow:visible;enable-background:accumulate;font-family:Sans;-inkscape-font-specification:Sans" d="M 7.6875 12 A 3.0040663 3.0040663 0 1 0 8 18 L 17.6875 18 L 30.09375 63.78125 A 3.0002998 3.0002998 0 0 0 33 66 L 82 66 A 3.0002998 3.0002998 0 1 0 82 60 L 35.3125 60 L 34.21875 56 L 84 56 A 3.0002998 3.0002998 0 0 0 86.90625 53.8125 L 94.90625 24.8125 A 3.0002998 3.0002998 0 0 0 91.875 20.96875 A 3.0002998 3.0002998 0 0 0 89.09375 23.1875 L 81.6875 50 L 32.59375 50 L 26.375 27 L 82 27 A 3.0002998 3.0002998 0 1 0 82 21 L 24.75 21 L 22.90625 14.21875 A 3.0002998 3.0002998 0 0 0 20 12 L 8 12 A 3.0002998 3.0002998 0 0 0 7.6875 12 z M 41 70 C 36.064971 70 32 74.064971 32 79 C 32 83.935029 36.064971 88 41 88 C 45.935029 88 50 83.935029 50 79 C 50 74.064971 45.935029 70 41 70 z M 75 70 C 70.064971 70 66 74.064971 66 79 C 66 83.935029 70.064971 88 75 88 C 79.935029 88 84 83.935029 84 79 C 84 74.064971 79.935029 70 75 70 z M 41 76 C 42.692389 76 44 77.307611 44 79 C 44 80.692389 42.692389 82 41 82 C 39.307612 82 38 80.692389 38 79 C 38 77.307611 39.307612 76 41 76 z M 75 76 C 76.692389 76 78 77.307611 78 79 C 78 80.692389 76.692389 82 75 82 C 73.307612 82 72 80.692389 72 79 C 72 77.307611 73.307612 76 75 76 z "/><text x="0" y="115" fill="#000000" font-size="5px" font-weight="bold" font-family="'Helvetica Neue', Helvetica, Arial-Unicode, Arial, Sans-serif">Created by pictohaven</text><text x="0" y="120" fill="#000000" font-size="5px" font-weight="bold" font-family="'Helvetica Neue', Helvetica, Arial-Unicode, Arial, Sans-serif">from the Noun Project</text></svg>